<mxfile host="app.diagrams.net" modified="2022-05-16T18:24:41.952Z" agent="5.0 (Windows NT 10.0; Win64; x64) AppleWebKit/537.36 (KHTML, like Gecko) Chrome/101.0.4951.67 Safari/537.36" etag="mJTaOFM-S1tq4xyBhhqB" version="18.0.6" type="github">
  <diagram id="N-0__u-b4OFAvGU3cNQb" name="Page-1">
    <mxGraphModel dx="1292" dy="669" grid="1" gridSize="10" guides="1" tooltips="1" connect="1" arrows="1" fold="1" page="1" pageScale="1" pageWidth="827" pageHeight="1169" math="0" shadow="0">
      <root>
        <mxCell id="0" />
        <mxCell id="1" parent="0" />
        <mxCell id="eaQxql0WGcCq-g7QlMkR-17" style="edgeStyle=orthogonalEdgeStyle;rounded=0;orthogonalLoop=1;jettySize=auto;html=1;exitX=0.5;exitY=1;exitDx=0;exitDy=0;entryX=0.5;entryY=0;entryDx=0;entryDy=0;fontSize=29;" edge="1" parent="1" source="eaQxql0WGcCq-g7QlMkR-3" target="eaQxql0WGcCq-g7QlMkR-4">
          <mxGeometry relative="1" as="geometry" />
        </mxCell>
        <mxCell id="eaQxql0WGcCq-g7QlMkR-3" value="&lt;p style=&quot;line-height: normal; margin: 0pt 0in; text-indent: 0in; direction: ltr; unicode-bidi: embed; vertical-align: baseline; word-break: normal;&quot;&gt;&lt;span style=&quot;font-size: 22pt; font-family: Arial; font-variant-numeric: normal; font-variant-east-asian: normal; color: rgb(23, 55, 94); font-weight: bold;&quot;&gt;dc=cc&lt;/span&gt;&lt;/p&gt;" style="rounded=1;whiteSpace=wrap;html=1;" vertex="1" parent="1">
          <mxGeometry x="320" y="40" width="120" height="40" as="geometry" />
        </mxCell>
        <mxCell id="eaQxql0WGcCq-g7QlMkR-18" style="edgeStyle=orthogonalEdgeStyle;rounded=0;orthogonalLoop=1;jettySize=auto;html=1;exitX=0.5;exitY=1;exitDx=0;exitDy=0;entryX=0.5;entryY=0;entryDx=0;entryDy=0;fontSize=29;" edge="1" parent="1" source="eaQxql0WGcCq-g7QlMkR-4" target="eaQxql0WGcCq-g7QlMkR-5">
          <mxGeometry relative="1" as="geometry" />
        </mxCell>
        <mxCell id="eaQxql0WGcCq-g7QlMkR-4" value="&lt;p style=&quot;line-height: normal; margin: 0pt 0in; text-indent: 0in; direction: ltr; unicode-bidi: embed; vertical-align: baseline; word-break: normal;&quot;&gt;&lt;span style=&quot;font-size: 22pt; font-family: Arial; font-variant-numeric: normal; font-variant-east-asian: normal; color: rgb(23, 55, 94); font-weight: bold;&quot;&gt;d&lt;/span&gt;&lt;span style=&quot;font-size: 22pt; font-family: Arial; font-variant-numeric: normal; font-variant-east-asian: normal; color: rgb(23, 55, 94); font-weight: bold; vertical-align: baseline;&quot;&gt;c=&lt;/span&gt;&lt;span style=&quot;font-size: 22pt; font-family: Arial; font-variant-numeric: normal; font-variant-east-asian: normal; color: rgb(23, 55, 94); font-weight: bold; vertical-align: baseline;&quot;&gt;nckucs&lt;/span&gt;&lt;/p&gt;" style="rounded=1;whiteSpace=wrap;html=1;" vertex="1" parent="1">
          <mxGeometry x="300" y="100" width="160" height="40" as="geometry" />
        </mxCell>
        <mxCell id="eaQxql0WGcCq-g7QlMkR-21" style="edgeStyle=orthogonalEdgeStyle;rounded=0;orthogonalLoop=1;jettySize=auto;html=1;exitX=0.25;exitY=1;exitDx=0;exitDy=0;entryX=0.5;entryY=0;entryDx=0;entryDy=0;fontSize=29;" edge="1" parent="1" source="eaQxql0WGcCq-g7QlMkR-5" target="eaQxql0WGcCq-g7QlMkR-6">
          <mxGeometry relative="1" as="geometry" />
        </mxCell>
        <mxCell id="eaQxql0WGcCq-g7QlMkR-22" style="edgeStyle=orthogonalEdgeStyle;rounded=0;orthogonalLoop=1;jettySize=auto;html=1;exitX=0.75;exitY=1;exitDx=0;exitDy=0;entryX=0.5;entryY=0;entryDx=0;entryDy=0;fontSize=29;" edge="1" parent="1" source="eaQxql0WGcCq-g7QlMkR-5" target="eaQxql0WGcCq-g7QlMkR-9">
          <mxGeometry relative="1" as="geometry" />
        </mxCell>
        <mxCell id="eaQxql0WGcCq-g7QlMkR-5" value="&lt;p style=&quot;line-height: normal; margin: 0pt 0in; text-indent: 0in; direction: ltr; unicode-bidi: embed; vertical-align: baseline; word-break: normal;&quot;&gt;&lt;span style=&quot;font-size: 22pt; font-family: Arial; font-variant-numeric: normal; font-variant-east-asian: normal; color: rgb(23, 55, 94); font-weight: bold;&quot;&gt;dc=&lt;/span&gt;&lt;span style=&quot;font-size: 22pt; font-family: Arial; font-variant-numeric: normal; font-variant-east-asian: normal; color: rgb(23, 55, 94); font-weight: bold;&quot;&gt;na&lt;/span&gt;&lt;/p&gt;" style="rounded=1;whiteSpace=wrap;html=1;" vertex="1" parent="1">
          <mxGeometry x="320" y="160" width="120" height="40" as="geometry" />
        </mxCell>
        <mxCell id="eaQxql0WGcCq-g7QlMkR-23" style="edgeStyle=orthogonalEdgeStyle;rounded=0;orthogonalLoop=1;jettySize=auto;html=1;exitX=0.25;exitY=1;exitDx=0;exitDy=0;entryX=0.5;entryY=0;entryDx=0;entryDy=0;fontSize=29;" edge="1" parent="1" source="eaQxql0WGcCq-g7QlMkR-6" target="eaQxql0WGcCq-g7QlMkR-10">
          <mxGeometry relative="1" as="geometry" />
        </mxCell>
        <mxCell id="eaQxql0WGcCq-g7QlMkR-24" style="edgeStyle=orthogonalEdgeStyle;rounded=0;orthogonalLoop=1;jettySize=auto;html=1;exitX=0.75;exitY=1;exitDx=0;exitDy=0;entryX=0.5;entryY=0;entryDx=0;entryDy=0;fontSize=29;" edge="1" parent="1" source="eaQxql0WGcCq-g7QlMkR-6" target="eaQxql0WGcCq-g7QlMkR-12">
          <mxGeometry relative="1" as="geometry" />
        </mxCell>
        <mxCell id="eaQxql0WGcCq-g7QlMkR-6" value="&lt;p style=&quot;line-height: normal; margin: 0pt 0in; text-indent: 0in; direction: ltr; unicode-bidi: embed; vertical-align: baseline; word-break: normal;&quot;&gt;&lt;span style=&quot;font-size: 22pt; font-family: Arial; font-variant-numeric: normal; font-variant-east-asian: normal; color: rgb(23, 55, 94); font-weight: bold;&quot;&gt;o&lt;/span&gt;&lt;span style=&quot;font-size: 22pt; font-family: Arial; font-variant-numeric: normal; font-variant-east-asian: normal; color: rgb(23, 55, 94); font-weight: bold; vertical-align: baseline;&quot;&gt;u&lt;/span&gt;&lt;span style=&quot;font-size: 22pt; font-family: Arial; font-variant-numeric: normal; font-variant-east-asian: normal; color: rgb(23, 55, 94); font-weight: bold; vertical-align: baseline;&quot;&gt;=&lt;/span&gt;&lt;span style=&quot;font-size: 22pt; font-family: Arial; font-variant-numeric: normal; font-variant-east-asian: normal; color: rgb(23, 55, 94); font-weight: bold;&quot;&gt;Group&lt;/span&gt;&lt;/p&gt;" style="rounded=1;whiteSpace=wrap;html=1;" vertex="1" parent="1">
          <mxGeometry x="210" y="240" width="160" height="40" as="geometry" />
        </mxCell>
        <mxCell id="eaQxql0WGcCq-g7QlMkR-25" style="edgeStyle=orthogonalEdgeStyle;rounded=0;orthogonalLoop=1;jettySize=auto;html=1;exitX=0.25;exitY=1;exitDx=0;exitDy=0;fontSize=29;" edge="1" parent="1" source="eaQxql0WGcCq-g7QlMkR-9" target="eaQxql0WGcCq-g7QlMkR-13">
          <mxGeometry relative="1" as="geometry" />
        </mxCell>
        <mxCell id="eaQxql0WGcCq-g7QlMkR-26" style="edgeStyle=orthogonalEdgeStyle;rounded=0;orthogonalLoop=1;jettySize=auto;html=1;exitX=0.75;exitY=1;exitDx=0;exitDy=0;entryX=0.5;entryY=0;entryDx=0;entryDy=0;fontSize=29;" edge="1" parent="1" source="eaQxql0WGcCq-g7QlMkR-9" target="eaQxql0WGcCq-g7QlMkR-14">
          <mxGeometry relative="1" as="geometry" />
        </mxCell>
        <mxCell id="eaQxql0WGcCq-g7QlMkR-9" value="&lt;p style=&quot;line-height: normal; margin: 0pt 0in; text-indent: 0in; direction: ltr; unicode-bidi: embed; vertical-align: baseline; word-break: normal;&quot;&gt;&lt;span style=&quot;font-size: 22pt; font-family: Arial; font-variant-numeric: normal; font-variant-east-asian: normal; color: rgb(23, 55, 94); font-weight: bold;&quot;&gt;o&lt;/span&gt;&lt;span style=&quot;font-size: 22pt; font-family: Arial; font-variant-numeric: normal; font-variant-east-asian: normal; color: rgb(23, 55, 94); font-weight: bold; vertical-align: baseline;&quot;&gt;u&lt;/span&gt;&lt;span style=&quot;font-size: 22pt; font-family: Arial; font-variant-numeric: normal; font-variant-east-asian: normal; color: rgb(23, 55, 94); font-weight: bold; vertical-align: baseline;&quot;&gt;=&lt;/span&gt;&lt;span style=&quot;font-size: 22pt; font-family: Arial; font-variant-numeric: normal; font-variant-east-asian: normal; color: rgb(23, 55, 94); font-weight: bold;&quot;&gt;People&lt;/span&gt;&lt;/p&gt;" style="rounded=1;whiteSpace=wrap;html=1;" vertex="1" parent="1">
          <mxGeometry x="390" y="240" width="160" height="40" as="geometry" />
        </mxCell>
        <mxCell id="eaQxql0WGcCq-g7QlMkR-10" value="&lt;p style=&quot;line-height: normal; margin: 0pt 0in; text-indent: 0in; direction: ltr; unicode-bidi: embed; vertical-align: baseline; word-break: normal;&quot;&gt;&lt;span style=&quot;font-size: 22pt; font-family: Arial; font-variant-numeric: normal; font-variant-east-asian: normal; color: rgb(23, 55, 94); font-weight: bold;&quot;&gt;cn&lt;/span&gt;&lt;span style=&quot;font-size: 22pt; font-family: Arial; font-variant-numeric: normal; font-variant-east-asian: normal; color: rgb(23, 55, 94); font-weight: bold; vertical-align: baseline;&quot;&gt;=student&lt;/span&gt;&lt;/p&gt;" style="rounded=1;whiteSpace=wrap;html=1;" vertex="1" parent="1">
          <mxGeometry x="70" y="320" width="170" height="40" as="geometry" />
        </mxCell>
        <mxCell id="eaQxql0WGcCq-g7QlMkR-12" value="&lt;p style=&quot;line-height: normal; margin: 0pt 0in; text-indent: 0in; direction: ltr; unicode-bidi: embed; vertical-align: baseline; word-break: normal;&quot;&gt;&lt;span style=&quot;font-size: 22pt; font-family: Arial; font-variant-numeric: normal; font-variant-east-asian: normal; color: rgb(23, 55, 94); font-weight: bold;&quot;&gt;cn&lt;/span&gt;&lt;span style=&quot;font-size: 22pt; font-family: Arial; font-variant-numeric: normal; font-variant-east-asian: normal; color: rgb(23, 55, 94); font-weight: bold; vertical-align: baseline;&quot;&gt;=ta&lt;/span&gt;&lt;/p&gt;" style="rounded=1;whiteSpace=wrap;html=1;" vertex="1" parent="1">
          <mxGeometry x="250" y="320" width="120" height="40" as="geometry" />
        </mxCell>
        <mxCell id="eaQxql0WGcCq-g7QlMkR-27" style="edgeStyle=orthogonalEdgeStyle;rounded=0;orthogonalLoop=1;jettySize=auto;html=1;exitX=0.5;exitY=1;exitDx=0;exitDy=0;entryX=0.5;entryY=0;entryDx=0;entryDy=0;fontSize=29;" edge="1" parent="1" source="eaQxql0WGcCq-g7QlMkR-13" target="eaQxql0WGcCq-g7QlMkR-16">
          <mxGeometry relative="1" as="geometry" />
        </mxCell>
        <mxCell id="eaQxql0WGcCq-g7QlMkR-13" value="&lt;p style=&quot;line-height: normal; margin: 0pt 0in; text-indent: 0in; direction: ltr; unicode-bidi: embed; vertical-align: baseline; word-break: normal;&quot;&gt;&lt;span style=&quot;font-size: 22pt; font-family: Arial; font-variant-numeric: normal; font-variant-east-asian: normal; color: rgb(23, 55, 94); font-weight: bold;&quot;&gt;cn&lt;/span&gt;&lt;span style=&quot;font-size: 22pt; font-family: Arial; font-variant-numeric: normal; font-variant-east-asian: normal; color: rgb(23, 55, 94); font-weight: bold; vertical-align: baseline;&quot;&gt;=&lt;/span&gt;&lt;span style=&quot;font-size: 22pt; font-family: Arial; font-variant-numeric: normal; font-variant-east-asian: normal; color: rgb(23, 55, 94); font-weight: bold; vertical-align: baseline;&quot;&gt;vinc&lt;/span&gt;&lt;/p&gt;" style="rounded=1;whiteSpace=wrap;html=1;" vertex="1" parent="1">
          <mxGeometry x="390" y="320" width="130" height="40" as="geometry" />
        </mxCell>
        <mxCell id="eaQxql0WGcCq-g7QlMkR-14" value="&lt;p style=&quot;line-height: normal; margin: 0pt 0in; text-indent: 0in; direction: ltr; unicode-bidi: embed; vertical-align: baseline; word-break: normal;&quot;&gt;&lt;span style=&quot;font-size: 22pt; font-family: Arial; font-variant-numeric: normal; font-variant-east-asian: normal; color: rgb(23, 55, 94); font-weight: bold;&quot;&gt;cn&lt;/span&gt;&lt;span style=&quot;font-size: 22pt; font-family: Arial; font-variant-numeric: normal; font-variant-east-asian: normal; color: rgb(23, 55, 94); font-weight: bold; vertical-align: baseline;&quot;&gt;=&lt;/span&gt;&lt;span style=&quot;font-size: 22pt; font-family: Arial; font-variant-numeric: normal; font-variant-east-asian: normal; color: rgb(23, 55, 94); font-weight: bold; vertical-align: baseline;&quot;&gt;chmy&lt;/span&gt;&lt;/p&gt;" style="rounded=1;whiteSpace=wrap;html=1;" vertex="1" parent="1">
          <mxGeometry x="540" y="320" width="160" height="40" as="geometry" />
        </mxCell>
        <mxCell id="eaQxql0WGcCq-g7QlMkR-16" value="&lt;p style=&quot;line-height: normal; margin: 0pt 0in; text-indent: 0in; direction: ltr; unicode-bidi: embed; vertical-align: baseline; word-break: normal;&quot;&gt;&lt;span style=&quot;font-size: 24pt; font-family: Arial; font-variant-numeric: normal; font-variant-east-asian: normal; color: rgb(74, 69, 42); font-weight: bold;&quot;&gt;&amp;nbsp;cn&lt;/span&gt;&lt;span style=&quot;font-size: 24pt; font-family: Arial; font-variant-numeric: normal; font-variant-east-asian: normal; color: rgb(74, 69, 42); font-weight: bold;&quot;&gt;=&lt;/span&gt;&lt;span style=&quot;font-size: 24pt; font-family: Arial; font-variant-numeric: normal; font-variant-east-asian: normal; color: rgb(74, 69, 42); font-weight: bold;&quot;&gt;vinc,ou&lt;/span&gt;&lt;span style=&quot;font-size: 24pt; font-family: Arial; font-variant-numeric: normal; font-variant-east-asian: normal; color: rgb(74, 69, 42); font-weight: bold;&quot;&gt;=&lt;/span&gt;&lt;span style=&quot;font-size: 24pt; font-family: Arial; font-variant-numeric: normal; font-variant-east-asian: normal; color: rgb(74, 69, 42); font-weight: bold;&quot;&gt;People,dc&lt;/span&gt;&lt;span style=&quot;font-size: 24pt; font-family: Arial; font-variant-numeric: normal; font-variant-east-asian: normal; color: rgb(74, 69, 42); font-weight: bold;&quot;&gt;=&lt;/span&gt;&lt;span style=&quot;font-size: 24pt; font-family: Arial; font-variant-numeric: normal; font-variant-east-asian: normal; color: rgb(74, 69, 42); font-weight: bold;&quot;&gt;na,dc&lt;/span&gt;&lt;span style=&quot;font-size: 24pt; font-family: Arial; font-variant-numeric: normal; font-variant-east-asian: normal; color: rgb(74, 69, 42); font-weight: bold;&quot;&gt;=&lt;/span&gt;&lt;span style=&quot;font-size: 24pt; font-family: Arial; font-variant-numeric: normal; font-variant-east-asian: normal; color: rgb(74, 69, 42); font-weight: bold;&quot;&gt;nckucs,dc&lt;/span&gt;&lt;span style=&quot;font-size: 24pt; font-family: Arial; font-variant-numeric: normal; font-variant-east-asian: normal; color: rgb(74, 69, 42); font-weight: bold;&quot;&gt;=cc&lt;/span&gt;&lt;br&gt;&lt;/p&gt;&lt;p style=&quot;line-height: normal; margin: 0pt 0in; text-indent: 0in; direction: ltr; unicode-bidi: embed; vertical-align: baseline; word-break: normal;&quot;&gt;&lt;span style=&quot;font-size: 24pt; font-family: Arial; font-variant-numeric: normal; font-variant-east-asian: normal; color: rgb(74, 69, 42); font-weight: bold;&quot;&gt;&lt;/span&gt;&lt;/p&gt;&lt;p style=&quot;line-height: normal; margin-top: 0pt; margin-bottom: 0pt; margin-right: 0in; direction: ltr; unicode-bidi: embed;&quot;&gt;&lt;span style=&quot;font-size: 24pt; font-family: Arial; font-variant-numeric: normal; font-variant-east-asian: normal; color: rgb(74, 69, 42); font-weight: bold;&quot;&gt;&amp;nbsp;o=&quot;&lt;/span&gt;&lt;span style=&quot;font-size: 24pt; font-family: Arial; font-variant-numeric: normal; font-variant-east-asian: normal; color: rgb(74, 69, 42); font-weight: bold;&quot;&gt;na&lt;/span&gt;&lt;span style=&quot;font-size: 24pt; font-family: Arial; font-variant-numeric: normal; font-variant-east-asian: normal; color: rgb(74, 69, 42); font-weight: bold;&quot;&gt;, &lt;/span&gt;&lt;span style=&quot;font-size: 24pt; font-family: Arial; font-variant-numeric: normal; font-variant-east-asian: normal; color: rgb(74, 69, 42); font-weight: bold;&quot;&gt;nckucs&lt;/span&gt;&lt;span style=&quot;font-size: 24pt; font-family: Arial; font-variant-numeric: normal; font-variant-east-asian: normal; color: rgb(74, 69, 42); font-weight: bold;&quot;&gt;, cc&quot;, c=TW&lt;/span&gt;&lt;/p&gt;&lt;p style=&quot;line-height: normal; margin-top: 0pt; margin-bottom: 0pt; margin-right: 0in; direction: ltr; unicode-bidi: embed;&quot;&gt;&lt;span style=&quot;font-size: 24pt; font-family: Arial; font-variant-numeric: normal; font-variant-east-asian: normal; color: rgb(74, 69, 42); font-weight: bold;&quot;&gt;&lt;/span&gt;&lt;/p&gt;&lt;p style=&quot;line-height: normal; margin-top: 0pt; margin-bottom: 0pt; margin-right: 0in; direction: ltr; unicode-bidi: embed;&quot;&gt;&lt;span style=&quot;font-size: 24pt; font-family: Arial; font-variant-numeric: normal; font-variant-east-asian: normal; color: rgb(74, 69, 42); font-weight: bold;&quot;&gt;&amp;nbsp;o=na.nckucs.cc&lt;/span&gt;&lt;/p&gt;" style="rounded=1;whiteSpace=wrap;html=1;align=left;" vertex="1" parent="1">
          <mxGeometry x="110" y="390" width="690" height="120" as="geometry" />
        </mxCell>
      </root>
    </mxGraphModel>
  </diagram>
</mxfile>
